<?xml version="1.0" encoding="iso-8859-1"?>
<svg version="1.1" xmlns="http://www.w3.org/2000/svg" xmlns:xlink="http://www.w3.org/1999/xlink" x="0px" y="0px"
	 viewBox="0 0 511.999 511.999" style="enable-background:new 0 0 511.999 511.999;" xml:space="preserve">
<g>
	<g>
		<path fill="#50514F" d="M195.597,270.971v15.002c0,8.277,6.725,15.002,15.002,15.002h30.004c8.277,0,15.002-6.725,15.002-15.002v-15.002H195.597z
			"/>
	</g>
</g>
<g>
	<g>
		<path fill="#50514F" d="M224.986,90.963c-28.177,0.236-50.257,18.798-56.931,42.559c-5.26,18.693-2.051,37.3,9.024,52.389
			c14.357,19.574,18.518,36.125,18.518,55.056h15.002v-64.62c-8.801-5.238-15.002-14.433-15.002-25.391
			c0-16.54,13.464-30.004,30.004-30.004s30.004,13.464,30.004,30.004c0,10.958-6.201,20.153-15.002,25.391v64.62h15.002
			c0-18.66,4.155-35.257,18.708-55.276c7.384-10.196,11.295-22.21,11.295-34.735C285.608,117.225,258.176,90.687,224.986,90.963z"/>
	</g>
</g>
<g>
	<g>
		<path fill="#50514F" d="M476.588,274.603l-56.023-83.301C417.742,70.134,305.925-21.229,183.804,4.304
			C109.777,19.73,49.872,80.913,34.753,155.058c-13.786,67.552,7.062,134.928,55.832,181.633v160.306
			c0,8.292,6.71,15.002,15.002,15.002h210.025c8.292,0,15.002-6.71,15.002-15.002v-76.009h52.213
			c20.847,0,37.798-16.95,37.798-37.798v-52.213h23.118C470.639,330.977,491.143,303.155,476.588,274.603z M298.589,203.316
			c-8.614,11.852-12.981,23.411-12.981,34.384c0,17.91,0,31.321,0,48.273c0,24.817-20.188,45.005-45.005,45.005h-30.004
			c-24.817,0-45.005-20.188-45.005-45.005c0-19.708,0-27.875,0-31c0-1.181,0-1.693,0-1.767c0-0.004,0-0.013,0-0.014
			c0-2.129,0-6.542,0-15.55c0-11.046-4.278-22.474-12.717-33.974c-16.394-22.357-21.404-50.88-13.713-78.261
			c9.92-35.316,43.383-64.492,86.432-64.478c48.946,0.015,90.015,39.455,90.015,90.027
			C315.612,169.855,309.722,187.948,298.589,203.316z"/>
	</g>
</g>
</svg>
