<?xml version="1.0" encoding="iso-8859-1"?>
<!DOCTYPE svg PUBLIC "-//W3C//DTD SVG 1.1//EN" "http://www.w3.org/Graphics/SVG/1.1/DTD/svg11.dtd">
<svg version="1.1" xmlns="http://www.w3.org/2000/svg" xmlns:xlink="http://www.w3.org/1999/xlink" x="0px" y="0px"
	 viewBox="0 0 215.059 215.059" style="enable-background:new 0 0 215.059 215.059;" xml:space="preserve">
<path fill="#50514F" d="M195.083,87.607h-3.046v-3.1C192.037,37.91,154.127,0,107.529,0S23.022,37.91,23.022,84.508v3.1h-3.046
	c-10.713,0-19.429,8.716-19.429,19.429v28.418c0,10.713,8.716,19.429,19.429,19.429h10.832c2.06,0,3.826-1.247,4.592-3.025
	c12.827,25.526,31.491,42.404,32.726,43.504c0.666,0.593,1.508,0.896,2.355,0.896c0.005,0,0.01,0.002,0.017,0
	c1.955,0,3.54-1.585,3.54-3.54c0-0.465-0.089-0.908-0.252-1.315c-0.091-0.325-0.25-0.907-0.453-1.701
	c8.727,10.956,18.093,17.435,25.203,21.154c5.254,2.749,11.175,4.202,17.123,4.202c5.948,0,11.87-1.453,17.124-4.202
	c6.789-3.552,15.632-9.637,24.013-19.713c15.847-5.774,27.922-19.463,31.419-36.26h6.868c10.713,0,19.429-8.716,19.429-19.429
	v-28.418C214.512,96.323,205.796,87.607,195.083,87.607z M39.128,54.999C50.581,28.554,76.924,10,107.529,10
	c33.736,0,62.29,22.545,71.431,53.354c-3.987-3.835-8.345-6.03-12.184-6.814c-2.719-7.75-6.724-12.557-7.607-13.555
	c-1.674-2.251-17.261-21.976-49.198-21.976c-10.94,0-22.631,2.372-34.745,7.051C66.584,31.397,50.976,39.203,39.128,54.999z
	 M129.501,204.584c-4.245,2.221-9.031,3.395-13.842,3.395c-4.81,0-9.596-1.174-13.841-3.395
	c-8.704-4.554-21.143-13.682-30.969-31.305c-0.195-0.349-0.375-0.709-0.565-1.062c-1.309-13.499-0.375-30.599,10.346-39.599
	c8.302-6.969,22.273-10.214,35.784-13.352c16.917-3.929,34.311-7.977,43.894-19.429c3.012,2.821,5.549,6.412,6.556,10.894
	c3.436,15.293-0.973,28.398-1.036,28.582c-0.479,1.378-0.065,2.908,1.044,3.856c0.656,0.56,1.474,0.848,2.3,0.848
	c0.573,0,1.15-0.139,1.677-0.423c0.037-0.02,0.124-0.069,0.233-0.131c-2.222,10.373-5.576,20.786-10.611,29.816
	c-1.504,2.697-3.073,5.172-4.677,7.485c-4.844,2.141-10.193,3.339-15.82,3.339h-5.176c-2.037-5.454-7.284-9.356-13.44-9.356h-13.671
	c-7.916,0-14.356,6.44-14.356,14.356s6.44,14.356,14.356,14.356h13.671c6.156,0,11.404-3.902,13.44-9.356h5.176
	c1.525,0,3.033-0.072,4.522-0.208C139.094,198.913,133.834,202.317,129.501,204.584z M169.952,170.162
	c4.514-9.929,7.435-20.798,9.298-31.3v5.964C179.25,154.475,175.746,163.317,169.952,170.162z"/>
</svg>
