<svg xmlns="http://www.w3.org/2000/svg" xmlns:xlink="http://www.w3.org/1999/xlink" preserveAspectRatio="xMidYMid" width="30" height="30" viewBox="0 0 30 30">
  <defs>
    <style>
      .cls-1 {
        fill: #06A8D9;
        fill-rule: evenodd;
      }
    </style>
  </defs>
  <path d="M28.125,7.500 C29.160,7.500 30.000,6.661 30.000,5.625 L30.000,1.875 L26.250,1.875 L26.250,-0.000 L1.875,-0.000 C0.844,-0.000 -0.000,0.844 -0.000,1.875 L-0.000,28.125 C-0.000,29.156 0.844,30.000 1.875,30.000 L26.250,30.000 L26.250,22.500 L28.125,22.500 C29.160,22.500 30.000,21.660 30.000,20.625 L30.000,16.875 L26.250,16.875 L26.250,15.000 L28.125,15.000 C29.160,15.000 30.000,14.160 30.000,13.125 L30.000,9.375 L26.250,9.375 L26.250,7.500 L28.125,7.500 ZM16.875,7.510 C18.941,7.510 20.615,9.184 20.615,11.250 C20.615,13.316 18.941,14.990 16.875,14.990 C14.809,14.990 13.135,13.316 13.135,11.250 C13.135,9.184 14.809,7.510 16.875,7.510 ZM7.500,28.125 L5.625,28.125 L5.625,1.875 L7.500,1.875 L7.500,28.125 ZM22.500,22.500 L11.250,22.500 L11.250,20.625 C11.250,18.554 12.929,16.875 15.000,16.875 L15.000,16.875 L18.750,16.875 C20.821,16.875 22.500,18.554 22.500,20.625 L22.500,22.500 Z" class="cls-1"/>
</svg>
