<svg xmlns="http://www.w3.org/2000/svg" xmlns:xlink="http://www.w3.org/1999/xlink" preserveAspectRatio="xMidYMid" width="69" height="40" viewBox="0 0 69 40">
  <defs>
    <style>
      .cls-1 {
        fill: #06A8D9;
        fill-rule: evenodd;
      }
    </style>
  </defs>
  <path d="M55.078,18.253 L34.500,24.586 L13.922,18.253 L12.245,17.655 L15.870,16.476 L16.213,15.631 L11.352,16.727 L11.352,17.945 L10.484,32.579 C7.218,34.528 3.951,32.579 3.951,32.579 C3.182,27.227 8.416,16.286 8.417,16.286 L8.755,15.286 L11.072,14.737 L10.687,14.336 L7.986,14.566 L7.360,15.907 L0.009,13.278 L34.500,0.010 L68.992,13.278 L55.078,18.253 ZM55.078,20.559 L55.078,31.021 C55.079,31.058 55.092,31.097 55.092,31.135 C55.092,36.025 45.874,39.989 34.506,39.989 C23.138,39.989 13.922,36.025 13.922,31.135 L13.922,26.789 L13.922,20.559 L34.500,26.891 L55.078,20.559 Z" class="cls-1"/>
</svg>
