<svg xmlns="http://www.w3.org/2000/svg" xmlns:xlink="http://www.w3.org/1999/xlink" preserveAspectRatio="xMidYMid" width="39.969" height="64.969" viewBox="0 0 39.969 64.969">
  <defs>
    <style>
      .cls-1 {
        fill: #06A8D9;
        fill-rule: evenodd;
      }
    </style>
  </defs>
  <path d="M37.786,29.384 C36.765,31.401 34.374,35.837 32.744,40.054 C32.744,40.054 30.052,43.764 29.992,47.243 L29.944,50.162 L29.903,52.671 L29.793,61.837 C29.793,61.837 26.526,64.970 20.081,64.970 C20.068,64.970 20.022,64.970 19.889,64.970 C13.132,64.970 10.576,61.347 10.576,61.347 L10.414,50.244 C10.414,50.244 10.396,49.322 10.380,48.438 C10.364,47.622 10.350,46.839 10.350,46.839 C10.158,43.090 7.994,40.054 7.994,40.054 C6.364,35.837 3.205,31.401 2.184,29.384 C0.783,26.615 -0.009,23.471 -0.009,20.137 C-0.009,9.009 8.574,-0.012 19.458,-0.012 C19.554,-0.012 20.416,-0.012 20.512,-0.012 C31.396,-0.012 39.979,9.009 39.979,20.137 C39.979,23.471 39.187,26.615 37.786,29.384 ZM14.249,60.211 L26.533,60.211 C27.212,60.211 27.762,59.649 27.762,58.955 C27.762,58.262 27.212,57.699 26.533,57.699 L14.249,57.699 C13.571,57.699 13.021,58.262 13.021,58.955 C13.021,59.649 13.571,60.211 14.249,60.211 ZM14.249,55.187 L26.533,55.187 C27.212,55.187 27.762,54.625 27.762,53.931 C27.762,53.237 27.212,52.675 26.533,52.675 L14.249,52.675 C13.571,52.675 13.021,53.237 13.021,53.931 C13.021,54.625 13.571,55.187 14.249,55.187 ZM14.249,50.163 L26.533,50.163 C27.212,50.163 27.762,49.600 27.762,48.907 C27.762,48.213 27.212,47.651 26.533,47.651 L14.249,47.651 C13.571,47.651 13.021,48.213 13.021,48.907 C13.021,49.600 13.571,50.163 14.249,50.163 ZM23.872,20.018 C20.801,21.064 12.407,17.715 12.407,17.715 C11.383,17.087 8.721,17.925 8.721,17.925 C9.540,19.180 16.296,33.625 16.296,34.881 C16.296,36.137 17.934,42.836 17.934,42.836 C21.210,49.535 20.596,40.324 20.596,40.324 C20.596,37.393 27.762,19.599 27.762,19.599 C29.195,16.041 23.872,20.018 23.872,20.018 ZM20.391,33.625 C20.391,33.625 22.234,39.905 18.344,34.253 C18.344,34.253 12.611,22.321 12.202,21.274 C12.202,21.274 13.430,20.227 14.659,21.274 C15.887,22.321 18.548,21.483 19.572,21.483 C20.596,21.483 22.029,22.949 23.872,21.902 C25.714,20.855 24.691,23.158 24.691,23.158 C24.691,23.158 21.005,32.578 20.391,33.625 ZM18.753,37.393 C21.210,36.765 21.210,39.905 19.572,41.790 C19.572,41.790 16.296,38.021 18.753,37.393 Z" class="cls-1"/>
</svg>
