<svg xmlns="http://www.w3.org/2000/svg" xmlns:xlink="http://www.w3.org/1999/xlink" preserveAspectRatio="xMidYMid" width="35" height="29" viewBox="0 0 35 29">
  <defs>
    <style>
      .cls-1 {
        fill: #06A8D9;
        fill-rule: evenodd;
      }
    </style>
  </defs>
  <path d="M32.479,9.136 C32.451,9.136 32.426,9.128 32.403,9.126 L28.991,25.281 L6.008,25.281 L2.598,9.126 C2.571,9.129 2.551,9.136 2.523,9.136 C1.132,9.136 -0.000,7.880 -0.000,6.328 C-0.000,4.781 1.132,3.523 2.523,3.523 C3.916,3.523 5.050,4.781 5.050,6.328 C5.050,7.335 4.570,8.210 3.854,8.709 C5.371,11.035 7.521,13.738 9.729,14.521 C12.642,15.552 15.352,9.216 16.684,5.450 C15.694,5.070 14.974,4.033 14.974,2.804 C14.974,1.257 16.106,-0.000 17.498,-0.000 C18.891,-0.000 20.022,1.257 20.022,2.804 C20.022,4.033 19.302,5.070 18.312,5.450 C19.647,9.216 22.360,15.552 25.268,14.521 C27.479,13.738 29.624,11.035 31.144,8.709 C30.425,8.210 29.947,7.335 29.947,6.328 C29.947,4.781 31.080,3.523 32.477,3.523 C33.866,3.523 34.999,4.781 35.000,6.328 C35.000,7.880 33.868,9.136 32.479,9.136 ZM28.875,29.000 L6.123,29.000 L6.123,25.849 L28.875,25.849 L28.875,29.000 Z" class="cls-1"/>
</svg>
